<svg xmlns="http://www.w3.org/2000/svg" width="2000" height="540" viewBox="0 0 2000 540" fill="none">
<path d="M 0 0 H 2000 V 520 C 2000 520 2000 540 1900 540 L 100 540 C 100 540 0 540 0 520 V 0 Z" fill="#FAFAFA"/>
<path d="M 0 0 H 2000 V 510 C 2000 510 2000 530 1900 530 L 100 530 C 100 530 0 530 0 510 V 0 Z" fill="#F0F0FE"/>
<path d="M 0 0 H 2000 V 500 C 2000 500 2000 520 1900 520 L 100 520 C 100 520 0 520 0 500 V 0 Z" fill="#6369FF"/>
<path d="M 0 0 H 2000 V 500 C 2000 500 2000 520 1900 520 L 100 520 C 100 520 0 520 0 500 V 0 Z" fill="url(#paint0_linear)"/>
<defs>
<linearGradient id="paint0_linear" x1="1280" y1="0" x2="1280" y2="848" gradientUnits="userSpaceOnUse">
<stop stop-color="#6369FF" stop-opacity="0"/>
<stop offset="1" stop-color="#00E3DF" stop-opacity="0.2"/>
</linearGradient>
</defs>
</svg>
